<svg xmlns="http://www.w3.org/2000/svg" viewBox="0 0 48 48" width="48" height="48">
  <defs>
    <linearGradient id="aurora" x1="0" y1="0" x2="1" y2="1">
      <stop offset="0%" stop-color="#6366f1"/>
      <stop offset="50%" stop-color="#a855f7"/>
      <stop offset="100%" stop-color="#ec4899"/>
    </linearGradient>
    <linearGradient id="sheen" x1="0" y1="0" x2="0" y2="1">
      <stop offset="0%" stop-color="rgba(255,255,255,0.18)"/>
      <stop offset="60%" stop-color="rgba(255,255,255,0.04)"/>
      <stop offset="100%" stop-color="rgba(255,255,255,0)"/>
    </linearGradient>
  </defs>
  <path d="M24 3.5 4.5 9.8v12.7c0 11.5 8.1 20.7 19.5 22 11.4-1.3 19.5-10.5 19.5-22V9.8L24 3.5Z" fill="url(#aurora)"/>
  <path d="M24 3.5 4.5 9.8v12.7c0 11.5 8.1 20.7 19.5 22 11.4-1.3 19.5-10.5 19.5-22V9.8L24 3.5Z" fill="url(#sheen)"/>
  <path d="M24 7 8 12.2v10.3c0 9.4 6.6 16.9 16 18 9.4-1.1 16-8.6 16-18V12.2L24 7Z" fill="none" stroke="rgba(255,255,255,0.18)" stroke-width="0.6"/>
  <path d="M16.5 32V16h3.4l8.2 10.3V16h3.4v16h-3.4l-8.2-10.3V32h-3.4Z" fill="white" opacity="0.97"/>
</svg>
